<svg width="48" height="1" viewBox="0 0 48 1" fill="none" xmlns="http://www.w3.org/2000/svg">
<g opacity="0.24">
<line x1="1.75" y1="0.5" x2="2.75" y2="0.5" stroke="black"/>
<line x1="3.75" y1="0.5" x2="4.75" y2="0.5" stroke="black"/>
<line x1="5.75" y1="0.5" x2="6.75" y2="0.5" stroke="black"/>
<line x1="7.75" y1="0.5" x2="8.75" y2="0.5" stroke="black"/>
<line x1="9.75" y1="0.5" x2="10.75" y2="0.5" stroke="black"/>
<line x1="11.75" y1="0.5" x2="12.75" y2="0.5" stroke="black"/>
<line x1="13.75" y1="0.5" x2="14.75" y2="0.5" stroke="black"/>
<line x1="15.75" y1="0.5" x2="16.75" y2="0.5" stroke="black"/>
<line x1="17.75" y1="0.5" x2="18.75" y2="0.5" stroke="black"/>
<line x1="19.75" y1="0.5" x2="20.75" y2="0.5" stroke="black"/>
<line x1="21.75" y1="0.5" x2="22.75" y2="0.5" stroke="black"/>
<line x1="23.75" y1="0.5" x2="24.75" y2="0.5" stroke="black"/>
<line x1="25.75" y1="0.5" x2="26.75" y2="0.5" stroke="black"/>
<line x1="27.75" y1="0.5" x2="28.75" y2="0.5" stroke="black"/>
<line x1="29.75" y1="0.5" x2="30.75" y2="0.5" stroke="black"/>
<line x1="31.75" y1="0.5" x2="32.75" y2="0.5" stroke="black"/>
<line x1="33.75" y1="0.5" x2="34.75" y2="0.5" stroke="black"/>
<line x1="35.75" y1="0.5" x2="36.75" y2="0.5" stroke="black"/>
<line x1="37.75" y1="0.5" x2="38.75" y2="0.5" stroke="black"/>
<line x1="39.75" y1="0.5" x2="40.75" y2="0.5" stroke="black"/>
<line x1="41.75" y1="0.5" x2="42.75" y2="0.5" stroke="black"/>
<line x1="43.75" y1="0.5" x2="44.75" y2="0.5" stroke="black"/>
<line x1="45.75" y1="0.5" x2="46.75" y2="0.5" stroke="black"/>
</g>
</svg>
